<mxfile host="app.diagrams.net" modified="2023-08-13T03:47:17.680Z" agent="Mozilla/5.0 (X11; Linux x86_64) AppleWebKit/537.36 (KHTML, like Gecko) Chrome/115.0.0.0 Safari/537.36" version="21.6.8" etag="2dE_b-Sx6jrLDzJ6CO78" type="github">
  <diagram name="Page-1" id="6qVtRmNPmIvDIsvxf1Jn">
    <mxGraphModel>
      <root>
        <mxCell id="0" />
        <mxCell id="1" parent="0" />
      </root>
    </mxGraphModel>
  </diagram>
</mxfile>
